<svg width="55" height="56" viewBox="0 0 55 56" fill="none" xmlns="http://www.w3.org/2000/svg">
<path fill-rule="evenodd" clip-rule="evenodd" d="M21.9267 25.8071C21.3987 25.7914 21.0266 25.3509 21.0612 24.8265L21.1003 24.2348C21.1283 23.8108 21.4134 23.4503 21.7916 23.2839H30.2259C32.7588 23.2839 34.8122 21.2306 34.8122 18.6977C34.8122 16.1648 32.7588 14.1115 30.2259 14.1115H24.6993C21.3613 14.0612 17.5253 14.0209 15.7502 14.0053C15.2076 14.0005 14.7693 13.5767 14.7452 13.038L14.7299 12.6976C14.7045 12.1296 15.1482 11.6521 15.7205 11.6438C19.2024 11.5934 29.8345 11.501 30.7821 11.6269C31.8751 11.7722 32.9203 12.157 33.8392 12.7527C34.7581 13.3483 35.5271 14.1393 36.0883 15.0664C36.6496 15.9934 36.9886 17.0324 37.08 18.1055C37.1714 19.1786 37.0129 20.258 36.6161 21.2628C36.2194 22.2676 35.5949 23.1717 34.7894 23.9074C33.9838 24.643 33.0182 25.1911 31.9648 25.5106C31.0655 25.7834 24.5055 25.8835 21.9267 25.8071Z" fill="#155EEF"/>
<path fill-rule="evenodd" clip-rule="evenodd" d="M14.9381 33.6802C14.9522 33.2292 15.3056 32.8876 15.7514 32.8442L16.2872 32.7919C16.9279 32.7295 17.4944 33.2982 17.4916 33.9468C17.4882 34.7222 17.518 35.6584 17.5609 36.444L17.5609 36.5963C17.5609 36.854 17.5819 37.1069 17.6223 37.3532C17.6303 37.4481 17.6384 37.5358 17.6466 37.6151C17.6673 37.6615 17.6861 37.7037 17.7033 37.7422C18.2136 39.7524 20.0352 41.2395 22.2041 41.2395C24.7684 41.2395 26.8472 39.1606 26.8472 36.5963L26.8472 27.1719C26.9645 26.7634 27.3349 26.4647 27.7778 26.4582L28.1788 26.4523C28.7188 26.4443 29.1665 26.8757 29.1773 27.4195C29.2284 29.9982 29.3129 36.3659 29.1902 37.2912C29.045 38.3868 28.6601 39.4345 28.0644 40.3557C27.4688 41.2768 26.6778 42.0476 25.7508 42.6102C24.8238 43.1729 23.7848 43.5127 22.7116 43.6044C21.6385 43.696 20.5591 43.537 19.5543 43.1393C18.5495 42.7417 17.6454 42.1156 16.9098 41.3081C16.1741 40.5006 15.626 39.5326 15.3065 38.4767C15.043 37.6056 14.8926 35.1331 14.9381 33.6802Z" fill="#155EEF"/>
<rect x="21.0539" y="24.0481" width="2.29312" height="13.7587" rx="1.01916" fill="#155EEF"/>
<path d="M28.1521 17.4235C28.715 17.4235 29.1713 17.8798 29.1713 18.4426L29.1713 21.7319C29.1713 22.2948 28.715 22.751 28.1521 22.751L27.8883 22.751C27.3402 22.751 26.8902 22.3176 26.8698 21.7699L26.8335 20.7949C26.8132 20.2507 26.3686 19.8186 25.8241 19.8138L15.9131 19.7256C15.3538 19.7206 14.903 19.2658 14.903 18.7064L14.903 18.4426C14.903 17.8798 15.3593 17.4235 15.9222 17.4235L28.1521 17.4235Z" fill="#155EEF"/>
</svg>
